<svg version="1.1" id="Layer_1" xmlns="http://www.w3.org/2000/svg" xmlns:xlink="http://www.w3.org/1999/xlink" x="0px" y="0px"
	 width="100%" viewBox="0 0 1116 674" enable-background="new 0 0 1116 674" xml:space="preserve">
<path fill="#FDFDFD" opacity="1.000000" stroke="none" 
	d="
M834.000000,675.000000 
	C556.000000,675.000000 278.500031,675.000000 1.000037,675.000000 
	C1.000025,450.333374 1.000025,225.666733 1.000012,1.000067 
	C372.999969,1.000045 744.999939,1.000045 1117.000000,1.000023 
	C1117.000000,225.666611 1117.000000,450.333221 1117.000000,674.999878 
	C1022.833313,675.000000 928.666687,675.000000 834.000000,675.000000 
M439.223633,97.291527 
	C431.431030,99.805847 423.638458,102.320160 415.098358,104.906761 
	C414.171570,105.259521 413.198669,105.523506 412.324707,105.977859 
	C379.395477,123.096451 360.778564,150.657349 353.960968,186.608170 
	C349.725037,208.945282 352.764130,231.129578 356.635071,253.152832 
	C364.196869,296.175049 378.150360,337.240448 395.871460,377.046936 
	C408.066559,404.440643 421.497406,431.164215 441.081909,454.282990 
	C450.494720,465.394470 461.223145,474.836151 474.868408,482.681366 
	C473.712769,480.210724 472.878632,478.817749 472.387848,477.312805 
	C469.822968,469.447876 466.390656,461.716553 465.019440,453.640045 
	C461.187164,431.067963 465.644073,409.263947 473.017944,387.940857 
	C482.215698,361.343811 495.434448,336.742615 511.112701,313.506134 
	C520.303040,299.885284 530.427185,286.887726 540.314636,273.747772 
	C543.609558,269.368958 547.222046,269.307495 551.343018,272.935181 
	C552.337097,273.810303 553.224792,274.821686 554.075439,275.842102 
	C571.821167,297.128845 586.878845,320.210693 600.144836,344.513092 
	C612.654114,367.429382 622.885681,391.187561 627.257935,417.108490 
	C630.825073,438.256042 629.813843,458.909668 619.744324,478.425659 
	C619.411987,479.069702 619.388367,479.872986 619.067749,481.268341 
	C620.833008,480.222076 621.991455,479.611084 623.071838,478.884033 
	C655.624634,456.975800 673.939392,424.371613 690.328369,389.464539 
	C711.271179,344.897369 727.774048,298.834869 736.430176,250.226532 
	C740.676025,226.384277 743.371033,202.367401 737.029358,178.435333 
	C727.767944,143.484634 707.719604,117.328438 673.778503,103.160576 
	C642.137695,89.952896 612.336914,95.754448 583.121216,112.918205 
	C573.855896,117.810013 564.533813,122.598351 555.345581,127.630844 
	C549.448059,130.860962 543.840881,131.156052 537.836182,127.806793 
	C527.810913,122.215027 517.663025,116.836319 507.475006,111.544487 
	C486.324677,100.558685 464.539948,92.403122 439.223633,97.291527 
M749.634521,406.074860 
	C755.850464,404.817230 762.066345,403.559601 768.677979,402.221893 
	C768.815857,404.818329 769.060669,406.141113 768.928040,407.424896 
	C766.949768,426.576721 765.752136,445.857330 762.691223,464.836761 
	C759.020142,487.598907 752.278687,509.617310 739.355835,529.115295 
	C727.234497,547.403992 711.343384,559.682495 688.075623,559.208618 
	C686.937561,559.185486 685.790466,559.604736 683.408264,560.049194 
	C706.636169,569.843933 729.200867,570.843872 752.102112,565.404907 
	C783.670654,557.907410 812.320557,543.306335 840.401550,527.675842 
	C864.263184,514.393921 886.678772,498.884155 907.262634,480.818665 
	C922.844482,467.143219 936.261108,451.679291 943.385315,432.034790 
	C949.476318,415.239319 951.309814,397.589905 946.776917,379.980286 
	C939.308350,350.966309 922.692627,329.756378 893.121948,320.918304 
	C879.931824,316.976044 866.383484,314.165802 852.898193,311.312134 
	C848.022888,310.280457 845.590454,307.815765 843.808228,303.383362 
	C838.783569,290.886963 834.022461,278.213989 827.942932,266.226593 
	C813.686462,238.116470 789.657837,224.920898 758.795715,223.004623 
	C756.128845,222.839020 754.305237,222.868332 753.803040,226.611237 
	C751.926025,240.599899 750.225098,254.671066 747.209351,268.437714 
	C735.353333,322.558380 715.703796,373.820129 689.365173,422.540466 
	C688.730713,423.713928 688.349426,425.024200 688.108582,425.625366 
	C708.420349,419.144440 728.622925,412.698364 749.634521,406.074860 
M143.933792,394.597565 
	C143.060272,411.057098 146.506439,426.587433 153.664932,441.408081 
	C162.877396,460.481140 177.689865,474.770874 193.702026,487.845642 
	C227.945435,515.807190 266.027649,537.413757 306.808258,554.268860 
	C330.180603,563.928894 354.117523,571.186340 379.958069,567.974915 
	C389.478119,566.791687 398.721375,564.652527 407.845459,560.489563 
	C407.166138,560.096069 407.039856,559.968506 406.899780,559.951050 
	C406.244751,559.869080 405.587189,559.782104 404.928406,559.760010 
	C386.431671,559.140930 371.490479,551.732178 359.547333,537.398071 
	C348.082001,523.637329 341.460815,507.604980 336.259338,490.903137 
	C328.504883,466.003815 325.595276,440.244446 324.039734,414.316620 
	C323.804657,410.398773 324.006927,406.454681 324.006927,402.078461 
	C352.117798,407.356323 378.638672,415.478088 405.410706,427.471313 
	C403.108185,423.402374 401.508331,420.734253 400.057709,417.987305 
	C383.643097,386.904205 370.098175,354.641418 359.382446,321.136322 
	C349.529236,290.328033 341.770233,259.123383 338.979980,226.824142 
	C338.714417,223.749832 337.392517,222.666962 334.531189,223.013550 
	C328.938171,223.691055 323.205444,223.811905 317.778839,225.161545 
	C296.276062,230.509399 278.261719,241.378632 267.613251,261.385071 
	C260.767761,274.246521 255.275345,287.877625 249.900406,301.450439 
	C247.375534,307.826263 243.587936,310.859467 236.987671,312.044342 
	C226.036087,314.010406 215.170883,316.533630 204.358673,319.186371 
	C165.912689,328.618927 145.730255,362.616272 143.933792,394.597565 
M529.118652,571.302795 
	C537.686340,581.770508 551.847778,583.281921 560.672791,574.670410 
	C570.156799,565.415833 569.885376,551.462952 560.055908,542.958984 
	C552.451599,536.380127 540.799561,536.317383 532.947876,542.813110 
	C524.536255,549.772034 522.915894,560.382690 529.118652,571.302795 
z"/>
<path fill="#BD60DA" opacity="1.000000" stroke="none" 
	d="
M749.230042,406.163574 
	C728.622925,412.698364 708.420349,419.144440 688.108582,425.625366 
	C688.349426,425.024200 688.730713,423.713928 689.365173,422.540466 
	C715.703796,373.820129 735.353333,322.558380 747.209351,268.437714 
	C750.225098,254.671066 751.926025,240.599899 753.803040,226.611237 
	C754.305237,222.868332 756.128845,222.839020 758.795715,223.004623 
	C789.657837,224.920898 813.686462,238.116470 827.942932,266.226593 
	C834.022461,278.213989 838.783569,290.886963 843.808228,303.383362 
	C845.590454,307.815765 848.022888,310.280457 852.898193,311.312134 
	C866.383484,314.165802 879.931824,316.976044 893.121948,320.918304 
	C922.692627,329.756378 939.308350,350.966309 946.776917,379.980286 
	C951.309814,397.589905 949.476318,415.239319 943.385315,432.034790 
	C936.261108,451.679291 922.844482,467.143219 907.262634,480.818665 
	C886.678772,498.884155 864.263184,514.393921 840.401550,527.675842 
	C812.320557,543.306335 783.670654,557.907410 752.102112,565.404907 
	C729.200867,570.843872 706.636169,569.843933 683.408264,560.049194 
	C685.790466,559.604736 686.937561,559.185486 688.075623,559.208618 
	C711.343384,559.682495 727.234497,547.403992 739.355835,529.115295 
	C752.278687,509.617310 759.020142,487.598907 762.691223,464.836761 
	C765.752136,445.857330 766.949768,426.576721 768.928040,407.424896 
	C769.060669,406.141113 768.815857,404.818329 768.677979,402.221893 
	C762.066345,403.559601 755.850464,404.817230 749.230042,406.163574 
z"/>
<path fill="#BD60DA" opacity="1.000000" stroke="none" 
	d="
M143.939575,394.114624 
	C145.730255,362.616272 165.912689,328.618927 204.358673,319.186371 
	C215.170883,316.533630 226.036087,314.010406 236.987671,312.044342 
	C243.587936,310.859467 247.375534,307.826263 249.900406,301.450439 
	C255.275345,287.877625 260.767761,274.246521 267.613251,261.385071 
	C278.261719,241.378632 296.276062,230.509399 317.778839,225.161545 
	C323.205444,223.811905 328.938171,223.691055 334.531189,223.013550 
	C337.392517,222.666962 338.714417,223.749832 338.979980,226.824142 
	C341.770233,259.123383 349.529236,290.328033 359.382446,321.136322 
	C370.098175,354.641418 383.643097,386.904205 400.057709,417.987305 
	C401.508331,420.734253 403.108185,423.402374 405.410706,427.471313 
	C378.638672,415.478088 352.117798,407.356323 324.006927,402.078461 
	C324.006927,406.454681 323.804657,410.398773 324.039734,414.316620 
	C325.595276,440.244446 328.504883,466.003815 336.259338,490.903137 
	C341.460815,507.604980 348.082001,523.637329 359.547333,537.398071 
	C371.490479,551.732178 386.431671,559.140930 404.928406,559.760010 
	C405.587189,559.782104 406.244751,559.869080 406.899780,559.951050 
	C407.039856,559.968506 407.166138,560.096069 407.845459,560.489563 
	C398.721375,564.652527 389.478119,566.791687 379.958069,567.974915 
	C354.117523,571.186340 330.180603,563.928894 306.808258,554.268860 
	C266.027649,537.413757 227.945435,515.807190 193.702026,487.845642 
	C177.689865,474.770874 162.877396,460.481140 153.664932,441.408081 
	C146.506439,426.587433 143.060272,411.057098 143.939575,394.114624 
z"/>
<path fill="#8231AC" opacity="1.000000" stroke="none" 
	d="
M689.847900,389.961670 
	C673.939392,424.371613 655.624634,456.975800 623.071838,478.884033 
	C621.991455,479.611084 620.833008,480.222076 619.067749,481.268341 
	C619.388367,479.872986 619.411987,479.069702 619.744324,478.425659 
	C629.813843,458.909668 630.825073,438.256042 627.257935,417.108490 
	C622.885681,391.187561 612.654114,367.429382 600.144836,344.513092 
	C586.878845,320.210693 571.821167,297.128845 554.075439,275.842102 
	C553.224792,274.821686 552.337097,273.810303 551.343018,272.935181 
	C547.222046,269.307495 543.609558,269.368958 540.314636,273.747772 
	C530.427185,286.887726 520.303040,299.885284 511.112701,313.506134 
	C495.434448,336.742615 482.215698,361.343811 473.017944,387.940857 
	C465.644073,409.263947 461.187164,431.067963 465.019440,453.640045 
	C466.390656,461.716553 469.822968,469.447876 472.387848,477.312805 
	C472.878632,478.817749 473.712769,480.210724 474.868408,482.681366 
	C461.223145,474.836151 450.494720,465.394470 441.081909,454.282990 
	C421.497406,431.164215 408.066559,404.440643 395.871460,377.046936 
	C378.150360,337.240448 364.196869,296.175049 356.635071,253.152832 
	C352.764130,231.129578 349.725037,208.945282 353.960968,186.608170 
	C360.778564,150.657349 379.395477,123.096451 412.324707,105.977859 
	C413.198669,105.523506 414.171570,105.259521 415.546997,104.951134 
	C415.995605,104.995506 416.145508,105.156403 416.034485,105.478119 
	C414.473999,106.848572 413.160461,108.223557 411.553101,108.893433 
	C400.593658,113.460876 391.531372,120.799026 384.108551,129.688583 
	C375.136963,140.432983 366.980194,151.725662 362.339539,165.463562 
	C358.439056,177.010315 354.647278,188.323730 354.983673,200.639008 
	C355.301147,212.262955 355.030029,223.947220 356.163452,235.492493 
	C357.353821,247.617828 359.313904,259.744080 362.018311,271.623932 
	C365.048767,284.936371 368.943481,298.084198 373.109314,311.096466 
	C376.833130,322.728119 381.263885,334.145508 385.702820,345.532684 
	C390.130402,356.890778 394.871307,368.129700 399.636780,379.352081 
	C402.719879,386.612610 405.702911,393.959869 409.430389,400.892059 
	C414.831818,410.937408 421.010468,420.561371 426.597076,430.511353 
	C435.695923,446.716797 448.083862,460.065521 462.118591,472.001801 
	C463.813660,473.443390 466.071747,474.222992 468.361023,475.468384 
	C466.056824,467.014771 462.915344,459.726227 462.232208,452.214142 
	C459.882599,426.376373 464.728394,401.446381 474.367218,377.510895 
	C478.380066,367.546082 483.378510,357.964050 488.195740,348.341583 
	C492.020264,340.701965 495.820953,332.991333 500.404877,325.805084 
	C506.911713,315.604065 514.039673,305.792603 521.068176,295.932953 
	C527.028992,287.571075 533.188049,279.349182 539.335754,271.122406 
	C541.740295,267.904663 545.046265,267.124146 548.575684,268.912079 
	C551.062927,270.172028 553.807251,271.576996 555.480408,273.678589 
	C562.696716,282.742584 569.892090,291.859100 576.455811,301.396454 
	C582.599670,310.323608 588.137268,319.689636 593.576599,329.074127 
	C599.333130,339.006073 605.061401,348.992249 610.072327,359.309143 
	C616.558289,372.662872 621.492676,386.611664 625.761169,400.907227 
	C630.266174,415.994690 631.774780,431.205292 630.720703,446.609314 
	C630.167419,454.694824 627.143921,462.606659 625.319885,470.616058 
	C625.104309,471.562836 625.420837,472.630768 625.567444,474.754944 
	C630.435120,470.713379 634.656433,467.545166 638.491150,463.963135 
	C651.427551,451.879272 661.836975,437.773010 670.885742,422.628937 
	C673.662720,417.981293 676.314636,413.256226 678.923889,408.511627 
	C682.307983,402.358154 685.592102,396.149719 689.151428,389.965332 
	C689.383606,389.965759 689.847900,389.961670 689.847900,389.961670 
z"/>
<path fill="#8218BA" opacity="1.000000" stroke="none" 
	d="
M528.902588,571.010010 
	C522.915894,560.382690 524.536255,549.772034 532.947876,542.813110 
	C540.799561,536.317383 552.451599,536.380127 560.055908,542.958984 
	C569.885376,551.462952 570.156799,565.415833 560.672791,574.670410 
	C551.847778,583.281921 537.686340,581.770508 528.902588,571.010010 
z"/>
<path fill="#7C30A2" opacity="1.000000" stroke="none" 
	d="
M690.088135,389.713104 
	C689.847900,389.961670 689.383606,389.965759 689.174805,389.572540 
	C689.233215,388.067871 689.341309,386.886597 689.793579,385.856415 
	C692.499817,379.692200 695.505066,373.650330 697.996948,367.402679 
	C702.625916,355.796692 707.043579,344.104553 711.411560,332.397003 
	C715.022034,322.719757 718.820862,313.086304 721.825684,303.217133 
	C724.840942,293.313599 727.372986,283.221710 729.406921,273.070160 
	C732.586304,257.201904 736.495789,241.310959 737.669678,225.252258 
	C739.173340,204.683594 739.162170,183.969574 730.393066,164.239182 
	C724.953918,152.001099 718.951111,140.124390 709.740356,130.577545 
	C699.036560,119.483208 686.830627,109.894241 672.009888,104.561462 
	C662.233521,101.043732 652.249512,98.567139 641.724487,97.825020 
	C628.796875,96.913483 616.869995,100.205246 605.063660,104.515221 
	C597.972839,107.103760 591.074219,110.218849 584.029053,113.031448 
	C583.968811,112.965599 583.849304,112.833153 583.849304,112.833153 
	C612.336914,95.754448 642.137695,89.952896 673.778503,103.160576 
	C707.719604,117.328438 727.767944,143.484634 737.029358,178.435333 
	C743.371033,202.367401 740.676025,226.384277 736.430176,250.226532 
	C727.774048,298.834869 711.271179,344.897369 690.088135,389.713104 
z"/>
<path fill="#7C30A2" opacity="1.000000" stroke="none" 
	d="
M440.018921,97.249634 
	C464.539948,92.403122 486.324677,100.558685 507.475006,111.544487 
	C517.663025,116.836319 527.810913,122.215027 537.836182,127.806793 
	C543.840881,131.156052 549.448059,130.860962 555.345581,127.630844 
	C564.533813,122.598351 573.855896,117.810013 583.485229,112.875679 
	C583.849304,112.833153 583.968811,112.965599 583.933105,113.363083 
	C582.680969,114.814880 581.615479,116.164848 580.223694,116.875801 
	C570.829224,121.674545 561.246887,126.119125 551.978027,131.144302 
	C547.800171,133.409332 544.101807,133.138565 540.252197,131.162949 
	C532.695068,127.284698 525.215393,123.255737 517.687195,119.320808 
	C512.247559,116.477600 506.905029,113.404320 501.298187,110.935661 
	C492.603943,107.107643 483.811279,103.457855 474.877136,100.241310 
	C470.981476,98.838768 466.651459,98.261238 462.484711,98.076759 
	C455.014160,97.745995 447.517914,97.995758 440.029724,97.814575 
	C440.027069,97.626244 440.018921,97.249634 440.018921,97.249634 
z"/>
<path fill="#8231AC" opacity="1.000000" stroke="none" 
	d="
M439.621277,97.270584 
	C440.018921,97.249634 440.027069,97.626244 439.793243,98.098633 
	C431.754791,100.766144 423.950134,102.961273 416.145508,105.156403 
	C416.145508,105.156403 415.995605,104.995506 415.920715,104.914993 
	C423.638458,102.320160 431.431030,99.805847 439.621277,97.270584 
z"/>
<path fill="#8213BD" opacity="1.000000" stroke="none" 
	d="
M416.034485,105.478119 
	C423.950134,102.961273 431.754791,100.766144 439.795898,98.286957 
	C447.517914,97.995758 455.014160,97.745995 462.484711,98.076759 
	C466.651459,98.261238 470.981476,98.838768 474.877136,100.241310 
	C483.811279,103.457855 492.603943,107.107643 501.298187,110.935661 
	C506.905029,113.404320 512.247559,116.477600 517.687195,119.320808 
	C525.215393,123.255737 532.695068,127.284698 540.252197,131.162949 
	C544.101807,133.138565 547.800171,133.409332 551.978027,131.144302 
	C561.246887,126.119125 570.829224,121.674545 580.223694,116.875801 
	C581.615479,116.164848 582.680969,114.814880 583.993286,113.428925 
	C591.074219,110.218849 597.972839,107.103760 605.063660,104.515221 
	C616.869995,100.205246 628.796875,96.913483 641.724487,97.825020 
	C652.249512,98.567139 662.233521,101.043732 672.009888,104.561462 
	C686.830627,109.894241 699.036560,119.483208 709.740356,130.577545 
	C718.951111,140.124390 724.953918,152.001099 730.393066,164.239182 
	C739.162170,183.969574 739.173340,204.683594 737.669678,225.252258 
	C736.495789,241.310959 732.586304,257.201904 729.406921,273.070160 
	C727.372986,283.221710 724.840942,293.313599 721.825684,303.217133 
	C718.820862,313.086304 715.022034,322.719757 711.411560,332.397003 
	C707.043579,344.104553 702.625916,355.796692 697.996948,367.402679 
	C695.505066,373.650330 692.499817,379.692200 689.793579,385.856415 
	C689.341309,386.886597 689.233215,388.067871 688.942627,389.572144 
	C685.592102,396.149719 682.307983,402.358154 678.923889,408.511627 
	C676.314636,413.256226 673.662720,417.981293 670.885742,422.628937 
	C661.836975,437.773010 651.427551,451.879272 638.491150,463.963135 
	C634.656433,467.545166 630.435120,470.713379 625.567444,474.754944 
	C625.420837,472.630768 625.104309,471.562836 625.319885,470.616058 
	C627.143921,462.606659 630.167419,454.694824 630.720703,446.609314 
	C631.774780,431.205292 630.266174,415.994690 625.761169,400.907227 
	C621.492676,386.611664 616.558289,372.662872 610.072327,359.309143 
	C605.061401,348.992249 599.333130,339.006073 593.576599,329.074127 
	C588.137268,319.689636 582.599670,310.323608 576.455811,301.396454 
	C569.892090,291.859100 562.696716,282.742584 555.480408,273.678589 
	C553.807251,271.576996 551.062927,270.172028 548.575684,268.912079 
	C545.046265,267.124146 541.740295,267.904663 539.335754,271.122406 
	C533.188049,279.349182 527.028992,287.571075 521.068176,295.932953 
	C514.039673,305.792603 506.911713,315.604065 500.404877,325.805084 
	C495.820953,332.991333 492.020264,340.701965 488.195740,348.341583 
	C483.378510,357.964050 478.380066,367.546082 474.367218,377.510895 
	C464.728394,401.446381 459.882599,426.376373 462.232208,452.214142 
	C462.915344,459.726227 466.056824,467.014771 468.361023,475.468384 
	C466.071747,474.222992 463.813660,473.443390 462.118591,472.001801 
	C448.083862,460.065521 435.695923,446.716797 426.597076,430.511353 
	C421.010468,420.561371 414.831818,410.937408 409.430389,400.892059 
	C405.702911,393.959869 402.719879,386.612610 399.636780,379.352081 
	C394.871307,368.129700 390.130402,356.890778 385.702820,345.532684 
	C381.263885,334.145508 376.833130,322.728119 373.109314,311.096466 
	C368.943481,298.084198 365.048767,284.936371 362.018311,271.623932 
	C359.313904,259.744080 357.353821,247.617828 356.163452,235.492493 
	C355.030029,223.947220 355.301147,212.262955 354.983673,200.639008 
	C354.647278,188.323730 358.439056,177.010315 362.339539,165.463562 
	C366.980194,151.725662 375.136963,140.432983 384.108551,129.688583 
	C391.531372,120.799026 400.593658,113.460876 411.553101,108.893433 
	C413.160461,108.223557 414.473999,106.848572 416.034485,105.478119 
z"/>
</svg>